<svg width="304" height="403" viewBox="0 0 304 403" fill="none" xmlns="http://www.w3.org/2000/svg">
<mask id="mask0" mask-type="alpha" maskUnits="userSpaceOnUse" x="0" y="0" width="304" height="403">
<rect y="0.0463867" width="304" height="402" fill="#0377A6"/>
</mask>
<g mask="url(#mask0)">
<path d="M199.684 429.86C158.353 497.023 236.997 508.074 281.485 505.204C319.157 444.57 386.321 308.018 353.601 246.881C312.7 170.461 192.149 193.064 227.669 264.103C263.188 335.142 251.348 345.905 199.684 429.86Z" fill="#02506E"/>
<path d="M-12.3559 87.5828C-21.8277 121.165 -39.2644 85.7889 -46.7988 63.9033L-29.5777 -27.5859C3.4301 -37.273 77.626 -52.3417 110.347 -35.1203C151.248 -13.5934 89.8963 73.5903 64.0641 48.8344C38.2318 24.0786 -0.51609 45.6054 -12.3559 87.5828Z" fill="#02506E"/>
<path opacity="0.3" d="M-43.5703 168.309C-23.8375 124.896 23.5932 42.3768 55.4531 59.5983C95.278 81.1251 108.194 75.7434 127.568 48.8348C143.068 27.3079 149.095 -2.47088 150.171 -14.6694" stroke="#73D6FD"/>
<path opacity="0.2" d="M335.302 208.133C304.806 183.378 237.356 151.087 211.523 219.973C179.232 306.081 256.729 291.012 229.821 346.982C202.912 402.951 208.294 421.249 180.309 414.791C152.324 408.333 95.2781 339.447 78.0566 388.959" stroke="#FEE6E8"/>
</g>
</svg>
