<svg width="210" height="256" viewBox="0 0 210 256" fill="none" xmlns="http://www.w3.org/2000/svg">
<path d="M200.282 202.955L200.329 197.555L130.804 181.222L9.74043 220.381V226.005C9.7353 226.276 9.82943 226.539 10.0061 226.749C10.218 226.99 10.4936 227.169 10.8032 227.27L78.8634 254.423C79.4202 254.632 80.0012 254.776 80.5939 254.851C81.9165 255.033 83.2614 255 84.5726 254.752C85.1727 254.644 85.7579 254.469 86.3166 254.232L199.471 204.272C199.706 204.192 199.907 204.039 200.043 203.838C200.229 203.58 200.313 203.267 200.282 202.955Z" fill="#BFE0E3"/>
<path opacity="0.2" d="M200.045 203.851C200.229 203.595 200.313 203.285 200.283 202.975L200.331 197.575L130.806 181.222L83.9609 196.369V254.824C84.1653 254.824 84.3765 254.772 84.5741 254.732C85.1742 254.624 85.7595 254.45 86.3182 254.212L199.473 204.272C199.706 204.196 199.907 204.048 200.045 203.851Z" fill="black"/>
<path opacity="0.2" d="M82.0876 255.068V246H79.7168V254.785C80.4863 255.001 81.2868 255.097 82.0876 255.068Z" fill="black"/>
<path d="M200.282 202.955L200.329 197.555L130.804 181.222L9.74043 220.381V226.005C9.7353 226.276 9.82943 226.539 10.0061 226.749C10.218 226.99 10.4936 227.169 10.8032 227.27L78.8634 254.423C79.4202 254.632 80.0012 254.776 80.5939 254.851C81.9165 255.033 83.2614 255 84.5726 254.752C85.1727 254.644 85.7579 254.469 86.3166 254.232L199.471 204.272C199.706 204.192 199.907 204.039 200.043 203.838C200.229 203.58 200.313 203.267 200.282 202.955Z" stroke="#263238" stroke-miterlimit="10"/>
<path d="M164.713 190.844L155.808 188.664C155.676 188.631 155.542 188.609 155.406 188.598C155.263 188.598 155.113 188.598 154.97 188.598C154.833 188.602 154.697 188.613 154.561 188.631C154.448 188.648 154.336 188.675 154.228 188.71C154.152 188.732 154.084 188.773 154.03 188.829C154.019 188.848 154.014 188.869 154.014 188.891C154.014 188.913 154.019 188.935 154.03 188.954C154.062 189.01 154.112 189.054 154.173 189.079C154.267 189.128 154.368 189.164 154.473 189.184L163.377 191.384C163.514 191.413 163.653 191.435 163.793 191.45H164.236C164.375 191.444 164.514 191.431 164.651 191.41C164.765 191.395 164.877 191.368 164.985 191.331C165.057 191.306 165.122 191.265 165.176 191.213C165.189 191.193 165.195 191.17 165.195 191.147C165.195 191.124 165.189 191.101 165.176 191.081C165.14 191.024 165.088 190.979 165.026 190.949C164.928 190.904 164.825 190.869 164.719 190.844" fill="#BFE0E3"/>
<path d="M190.8 198.279L175.778 194.578H173.318C173.046 194.578 172.78 194.578 172.514 194.578C172.249 194.578 171.983 194.545 171.731 194.512C171.479 194.479 171.22 194.446 170.975 194.407C170.729 194.367 170.505 194.315 170.293 194.262L144.098 187.762L143.567 187.604C143.403 187.544 143.26 187.485 143.131 187.426C143.017 187.368 142.907 187.302 142.804 187.228C142.725 187.171 142.656 187.102 142.599 187.024L142.075 186.287L128.626 182.994L26.209 217.114L90.8491 241.04L190.8 198.279Z" fill="#02506E" stroke="#BFE0E3" stroke-width="3" stroke-miterlimit="10"/>
<path d="M200.528 197.114C200.36 196.914 200.145 196.756 199.902 196.653C199.53 196.478 199.139 196.345 198.737 196.257L133.136 180.452C132.723 180.356 132.304 180.288 131.882 180.247C131.429 180.209 130.974 180.194 130.52 180.201C130.077 180.207 129.636 180.24 129.198 180.3C128.819 180.349 128.445 180.431 128.081 180.544L11.3087 218.833C10.8778 218.965 10.4676 219.154 10.0892 219.393C9.83289 219.536 9.62835 219.753 9.50333 220.012C9.45949 220.111 9.44395 220.219 9.45833 220.326C9.47272 220.432 9.5165 220.533 9.58509 220.618C9.79308 220.861 10.0666 221.043 10.3754 221.145L78.8716 247.955C79.428 248.168 80.0091 248.313 80.6021 248.39C81.9247 248.572 83.2695 248.539 84.5807 248.291C85.1809 248.183 85.7661 248.009 86.3248 247.771L200.011 198.009C200.247 197.925 200.45 197.77 200.59 197.568C200.623 197.494 200.634 197.413 200.624 197.333C200.613 197.253 200.58 197.177 200.528 197.114ZM90.8417 241.04L26.2084 217.114L128.619 182.941L142.067 186.234L142.592 186.972C142.649 187.049 142.718 187.118 142.796 187.176C142.9 187.25 143.009 187.316 143.123 187.373C143.253 187.432 143.396 187.492 143.559 187.551L144.091 187.709L170.273 194.236C170.491 194.288 170.722 194.341 170.954 194.38C171.185 194.42 171.451 194.459 171.71 194.486C171.969 194.512 172.228 194.539 172.494 194.552C172.759 194.565 173.025 194.552 173.297 194.552H175.757L190.779 198.253L90.8417 241.04ZM154.024 188.809C154.078 188.753 154.146 188.712 154.222 188.69C154.33 188.655 154.442 188.628 154.555 188.611C154.691 188.593 154.827 188.582 154.964 188.578C155.107 188.578 155.257 188.578 155.4 188.578C155.536 188.589 155.67 188.611 155.802 188.644L164.706 190.824C164.812 190.849 164.915 190.884 165.013 190.93C165.075 190.959 165.127 191.005 165.163 191.061C165.176 191.081 165.182 191.104 165.182 191.127C165.182 191.15 165.176 191.173 165.163 191.193C165.109 191.246 165.044 191.286 164.972 191.312C164.864 191.349 164.752 191.375 164.638 191.391C164.501 191.411 164.362 191.424 164.223 191.43H163.78C163.64 191.416 163.501 191.394 163.364 191.364L154.46 189.165C154.355 189.144 154.254 189.109 154.16 189.059C154.1 189.034 154.049 188.99 154.017 188.934C154.008 188.914 154.005 188.892 154.007 188.87C154.01 188.848 154.018 188.827 154.031 188.809H154.024ZM54.9109 230.391C54.7512 230.515 54.5717 230.613 54.3795 230.681C54.1301 230.771 53.8723 230.837 53.6096 230.879C53.3287 230.93 53.0438 230.959 52.758 230.964C52.4803 230.972 52.2024 230.958 51.9268 230.925C51.694 230.892 51.4656 230.834 51.2455 230.753C51.0794 230.696 50.9282 230.604 50.8027 230.483C50.7624 230.443 50.7317 230.394 50.7129 230.34C50.6941 230.287 50.6875 230.23 50.6937 230.174C50.7272 230.046 50.807 229.934 50.9185 229.858C51.0765 229.732 51.2564 229.633 51.4499 229.568C51.6993 229.478 51.9571 229.412 52.2198 229.37C52.499 229.324 52.7813 229.298 53.0646 229.291C53.34 229.284 53.6156 229.298 53.8889 229.331C54.1214 229.362 54.3498 229.417 54.5702 229.496C54.7367 229.55 54.8882 229.64 55.0131 229.759C55.0567 229.798 55.0901 229.846 55.1102 229.9C55.1304 229.954 55.1368 230.012 55.1289 230.069C55.0997 230.198 55.0221 230.313 54.9109 230.391Z" fill="#263238"/>
<path d="M54.5643 229.496C54.3439 229.417 54.1155 229.362 53.883 229.331C53.6097 229.298 53.3341 229.284 53.0587 229.291C52.7754 229.297 52.4931 229.324 52.2139 229.37C51.9512 229.412 51.6934 229.478 51.444 229.568C51.2505 229.633 51.0706 229.732 50.9126 229.858C50.8011 229.934 50.7213 230.046 50.6878 230.174C50.6816 230.23 50.6882 230.287 50.707 230.34C50.7258 230.394 50.7565 230.443 50.7968 230.483C50.9223 230.603 51.0735 230.696 51.2396 230.753C51.4597 230.834 51.6881 230.891 51.9209 230.925C52.1965 230.958 52.4744 230.971 52.7521 230.964C53.0379 230.959 53.3228 230.93 53.6037 230.879C53.8663 230.837 54.1242 230.771 54.3735 230.681C54.5657 230.613 54.7452 230.515 54.9049 230.391C55.0136 230.312 55.0887 230.197 55.1161 230.069C55.124 230.012 55.1176 229.954 55.0975 229.9C55.0773 229.846 55.044 229.798 55.0003 229.759C54.8754 229.64 54.7239 229.55 54.5575 229.496" fill="#BFE0E3"/>
<path d="M157.388 152.578C186.3 124.629 186.3 79.3156 157.388 51.3669C128.475 23.4181 81.599 23.4182 52.6866 51.3669C23.7741 79.3156 23.7741 124.629 52.6866 152.578C81.599 180.527 128.475 180.527 157.388 152.578Z" fill="#BFE0E3"/>
<path opacity="0.18" d="M157.388 152.578C186.3 124.629 186.3 79.3156 157.388 51.3669C128.475 23.4181 81.599 23.4182 52.6866 51.3669C23.7741 79.3156 23.7741 124.629 52.6866 152.578C81.599 180.527 128.475 180.527 157.388 152.578Z" fill="black"/>
<path opacity="0.86" d="M105.039 132.547C89.1027 132.546 73.5919 127.576 60.8103 118.375C48.0286 109.174 38.658 96.2333 34.0901 81.4746C30.7956 92.1564 30.1277 103.435 32.1396 114.41C34.1516 125.385 38.7878 135.755 45.6788 144.692C52.5698 153.629 61.525 160.887 71.8308 165.886C82.1367 170.886 93.5081 173.49 105.039 173.49C116.57 173.49 127.941 170.886 138.247 165.886C148.553 160.887 157.508 153.629 164.399 144.692C171.29 135.755 175.926 125.385 177.938 114.41C179.95 103.435 179.282 92.1564 175.988 81.4746C171.419 96.2327 162.048 109.173 149.267 118.374C136.485 127.574 120.975 132.545 105.039 132.547Z" fill="#BFE0E3"/>
<path d="M102.376 68.8431L109.406 71.8989L111.334 74.9547L114.502 76.1467L114.85 79.3737L113.624 81.2441L111.164 81.7512L105.891 79.7096V79.051L108.875 77.8656L107.819 74.2961L103.05 72.597L100.945 69.8837L102.376 68.8431ZM146.659 147.312L141.038 145.106L134.164 142.728H128.714L123.638 141.708L118.011 142.9L114.85 143.064H112.915L109.229 145.106L105.714 146.463L100.945 143.578L102.171 138.823L99.1872 137.631H95.6718L95.1472 136.103L95.4946 133.047L94.2683 131.348L91.8089 131.684L91.1276 133.383L88.1436 133.555L85.507 130.512L84.4306 126.422L87.0672 121.667L92.1632 122.003L93.5666 123.195H95.6786L98.3151 121.667L100.597 122.326L103.759 127.594L104.992 127.43L104.637 123.518L103.588 121.483L103.936 118.256L110.435 115.536L111.314 109.253L114.128 107.047L116.41 103.142L118.168 102.799L122.208 100.25L122.385 98.8938L119.571 99.0651L119.047 97.7018H117.132L114.148 98.3604L115.552 96.1542L121.683 94.455L123.087 92.9272L125.546 96.6613L127.133 98.1957L129.593 97.5372L128.537 95.331L124.844 92.7823L120.627 88.1723L116.233 85.2811L112.016 84.6226L109.911 82.5876L107.097 81.929L106.749 82.5876L106.395 87.5137L107.076 89.2128L105.55 94.6592L102.035 91.9393L102.566 89.5619L98.8738 87.8627L97.2932 85.999L98.1721 81.7512L103.268 78.1817L103.622 74.1051L101.687 74.2764L100.454 72.7485L99.9298 70.1998L98.6967 70.0286L98.0154 72.7485L96.0873 73.0909L95.2085 67.1638L93.7982 66.3142L91.3388 65.2934L88.5183 66.6303L92.0269 69.8639L92.7082 72.7485L86.3859 68.1384L81.9916 63.5284L81.6442 58.9184L77.0727 57.5618L73.5301 59.8404C72.6784 60.3403 71.7981 60.7932 70.8935 61.1971C69.5065 61.5167 68.0969 61.7368 66.6764 61.8557L65.9951 64.7468L61.9551 64.918L62.3093 66.7818L68.8088 67.8026L72.1471 71.372V77.2992L70.2122 82.5678L70.5665 88.1723L65.6476 96.4966L64.5916 108.891L66.1722 116.03L68.4545 121.463L71.0911 121.806L70.2122 119.086L68.8088 117.044L67.9299 113.31L69.5105 112.968L71.9699 119.086L73.7345 124.585V129.004L77.0727 132.909L83.068 137.098L92.204 139.475L95.0177 142.024L97.1229 144.737L100.284 146.607L104.154 147.628L108.017 147.457C108.017 147.457 107.839 149.156 107.839 150.006C107.839 150.855 105.38 153.74 105.38 153.74L103.452 157.138L104.855 160.872L108.718 162.407L114.169 167.84L116.628 168.861V171.403L116.935 172.595C130.603 170.458 143.374 164.645 153.785 155.821L153.881 154.589L158.65 146.265L156.367 144.737L146.659 147.312ZM164.938 80.2233L163.003 76.9963L160.543 73.2556L159.862 68.1648L163.023 68.6719L163.2 66.9728L160.911 66.8015L162.846 65.952L164.958 64.7666V63.0674L162.846 60.3475L162.397 56.6924C152.18 44.6108 138.161 36.0847 122.472 32.4103C106.784 28.7359 90.2827 30.1143 75.4785 36.3359L79.5322 39.1085L77.0727 42.1709L73.7345 42.8295L73.3802 47.4395L71.9768 47.9466L70.219 49.8169L70.3962 52.8727L73.3802 53.2152L72.1675 56.0931H75.1515L80.2475 49.8104L80.7789 47.097L85.6978 46.7546L86.9241 44.713L92.0201 44.2059L92.5515 41.3213L96.2372 41.1501C96.2372 41.1501 98.8738 39.7935 99.4052 39.7935C100.42 40.0048 101.417 40.2865 102.389 40.6364L105.026 42.678H108.712L111.879 40.8077L115.919 41.1501C116.501 41.5155 117.164 41.7413 117.854 41.8087C118.733 41.8087 121.363 40.6167 121.363 40.6167L126.459 43.679L128.571 45.2069V47.7556L131.207 48.0915L132.086 46.5636L134.369 47.5844L134.191 48.941L128.918 50.3043L131.909 54.0384L138.231 57.4366L140.868 60.8349L144.738 61.1707L145.617 59.4716L147.02 59.1357L142.449 55.7375L139.614 55.4346L141.897 54.776L139.785 51.8914L142.776 51.7202L146.639 53.7552L147.517 57.8318L149.452 60.0446L151.033 64.9707L154.896 67.684V73.2885L158.942 75.8372L158.765 77.7075L158.234 79.9137L159.29 82.9695L159.644 84.504L162.628 85.0111L164.038 82.12L164.938 80.2233ZM167.22 63.1004V64.0751L166.341 66.7884L166.866 69.1658L168.801 69.8244V73.0514L166.689 72.2019L166.185 81.4087L164.079 85.1494L165.483 89.9043L167.765 91.9393V101.113L170.047 108.246L172.514 113.685L176.554 114.7L177.957 111.301L178.529 110.873C178.91 107.922 179.101 104.95 179.102 101.976C179.116 88.1823 174.986 74.6814 167.213 63.1135L167.22 63.1004ZM126.622 62.0203L115.041 57.0942L109.945 57.2654L108.712 60.4924L106.606 58.2862L102.743 59.1357L102.389 64.7402L105.55 66.9464L107.833 63.7194L110.469 66.2681L115.919 70.8781L116.975 75.8042L121.54 81.4087L128.918 80.2233L128.748 77.6746L127.167 74.7835L126.813 67.9936L128.571 65.1024L126.622 62.0203ZM136.113 65.761L133.476 65.1024L131.194 66.9728L132.42 71.8989H134.709L136.113 65.761ZM152.463 68.988L146.482 65.9717L145.249 63.9368L143.845 64.4439L145.072 67.8421L146.128 72.2611L148.764 73.2753L149.289 72.6167L147.708 70.0681L152.28 71.7672L152.463 68.988ZM101.156 130.301L100.475 130.96L105.748 132.488L107.853 134.865L111.198 135.208L112.424 133.337L108.384 132.679L101.156 130.301ZM116.826 133.528L113.133 134.549L113.664 135.906H118.229L119.108 134.549L117.527 134.72L116.826 133.528Z" fill="#02506E"/>
<path opacity="0.65" d="M105.037 132.547C89.1007 132.546 73.5899 127.576 60.8083 118.375C48.0267 109.174 38.656 96.2333 34.0882 81.4746C30.7936 92.1564 30.1257 103.435 32.1377 114.41C34.1496 125.385 38.7859 135.755 45.6769 144.692C52.5678 153.629 61.5231 160.887 71.8289 165.886C82.1347 170.886 93.5061 173.49 105.037 173.49C116.568 173.49 127.939 170.886 138.245 165.886C148.551 160.887 157.506 153.629 164.397 144.692C171.288 135.755 175.924 125.385 177.936 114.41C179.948 103.435 179.28 92.1564 175.986 81.4746C171.417 96.2327 162.046 109.173 149.265 118.374C136.483 127.574 120.973 132.545 105.037 132.547Z" fill="#BFE0E3"/>
<path d="M102.376 68.8431L109.406 71.8989L111.334 74.9547L114.502 76.1467L114.85 79.3737L113.624 81.2441L111.164 81.7512L105.891 79.7096V79.051L108.875 77.8656L107.819 74.2961L103.05 72.597L100.945 69.8837L102.376 68.8431ZM146.659 147.312L141.038 145.106L134.164 142.728H128.714L123.638 141.708L118.011 142.9L114.85 143.064H112.915L109.229 145.106L105.714 146.463L100.945 143.578L102.171 138.823L99.1872 137.631H95.6718L95.1472 136.103L95.4946 133.047L94.2683 131.348L91.8089 131.684L91.1276 133.383L88.1436 133.555L85.507 130.512L84.4306 126.422L87.0672 121.667L92.1632 122.003L93.5666 123.195H95.6786L98.3151 121.667L100.597 122.326L103.759 127.594L104.992 127.43L104.637 123.518L103.588 121.483L103.936 118.256L110.435 115.536L111.314 109.253L114.128 107.047L116.41 103.142L118.168 102.799L122.208 100.25L122.385 98.8938L119.571 99.0651L119.047 97.7018H117.132L114.148 98.3604L115.552 96.1542L121.683 94.455L123.087 92.9272L125.546 96.6613L127.133 98.1957L129.593 97.5372L128.537 95.331L124.844 92.7823L120.627 88.1723L116.233 85.2811L112.016 84.6226L109.911 82.5876L107.097 81.929L106.749 82.5876L106.395 87.5137L107.076 89.2128L105.55 94.6592L102.035 91.9393L102.566 89.5619L98.8738 87.8627L97.2932 85.999L98.1721 81.7512L103.268 78.1817L103.622 74.1051L101.687 74.2764L100.454 72.7485L99.9298 70.1998L98.6967 70.0286L98.0154 72.7485L96.0873 73.0909L95.2085 67.1638L93.7982 66.3142L91.3388 65.2934L88.5183 66.6303L92.0269 69.8639L92.7082 72.7485L86.3859 68.1384L81.9916 63.5284L81.6442 58.9184L77.0727 57.5618L73.5301 59.8404C72.6784 60.3403 71.7981 60.7932 70.8935 61.1971C69.5065 61.5167 68.0969 61.7368 66.6764 61.8557L65.9951 64.7468L61.9551 64.918L62.3093 66.7818L68.8088 67.8026L72.1471 71.372V77.2992L70.2122 82.5678L70.5665 88.1723L65.6476 96.4966L64.5916 108.891L66.1722 116.03L68.4545 121.463L71.0911 121.806L70.2122 119.086L68.8088 117.044L67.9299 113.31L69.5105 112.968L71.9699 119.086L73.7345 124.585V129.004L77.0727 132.909L83.068 137.098L92.204 139.475L95.0177 142.024L97.1229 144.737L100.284 146.607L104.154 147.628L108.017 147.457C108.017 147.457 107.839 149.156 107.839 150.006C107.839 150.855 105.38 153.74 105.38 153.74L103.452 157.138L104.855 160.872L108.718 162.407L114.169 167.84L116.628 168.861V171.403L116.935 172.595C130.603 170.458 143.374 164.645 153.785 155.821L153.881 154.589L158.65 146.265L156.367 144.737L146.659 147.312ZM164.938 80.2233L163.003 76.9963L160.543 73.2556L159.862 68.1648L163.023 68.6719L163.2 66.9728L160.911 66.8015L162.846 65.952L164.958 64.7666V63.0674L162.846 60.3475L162.397 56.6924C152.18 44.6108 138.161 36.0847 122.472 32.4103C106.784 28.7359 90.2827 30.1143 75.4785 36.3359L79.5322 39.1085L77.0727 42.1709L73.7345 42.8295L73.3802 47.4395L71.9768 47.9466L70.219 49.8169L70.3962 52.8727L73.3802 53.2152L72.1675 56.0931H75.1515L80.2475 49.8104L80.7789 47.097L85.6978 46.7546L86.9241 44.713L92.0201 44.2059L92.5515 41.3213L96.2372 41.1501C96.2372 41.1501 98.8738 39.7935 99.4052 39.7935C100.42 40.0048 101.417 40.2865 102.389 40.6364L105.026 42.678H108.712L111.879 40.8077L115.919 41.1501C116.501 41.5155 117.164 41.7413 117.854 41.8087C118.733 41.8087 121.363 40.6167 121.363 40.6167L126.459 43.679L128.571 45.2069V47.7556L131.207 48.0915L132.086 46.5636L134.369 47.5844L134.191 48.941L128.918 50.3043L131.909 54.0384L138.231 57.4366L140.868 60.8349L144.738 61.1708L145.617 59.4716L147.02 59.1358L142.449 55.7375L139.614 55.4346L141.897 54.776L139.785 51.8914L142.776 51.7202L146.639 53.7552L147.517 57.8318L149.452 60.0446L151.033 64.9707L154.896 67.684V73.2885L158.942 75.8372L158.765 77.7075L158.234 79.9137L159.29 82.9695L159.644 84.504L162.628 85.0111L164.038 82.12L164.938 80.2233ZM167.22 63.1004V64.0751L166.341 66.7884L166.866 69.1658L168.801 69.8244V73.0514L166.689 72.2019L166.185 81.4087L164.079 85.1494L165.483 89.9043L167.765 91.9393V101.113L170.047 108.246L172.514 113.685L176.554 114.7L177.957 111.301L178.529 110.873C178.91 107.922 179.101 104.95 179.102 101.976C179.116 88.1823 174.986 74.6814 167.213 63.1135L167.22 63.1004ZM126.622 62.0203L115.041 57.0942L109.945 57.2654L108.712 60.4924L106.606 58.2862L102.743 59.1358L102.389 64.7402L105.55 66.9464L107.833 63.7194L110.469 66.2681L115.919 70.8781L116.975 75.8042L121.54 81.4087L128.918 80.2233L128.748 77.6746L127.167 74.7835L126.813 67.9936L128.571 65.1024L126.622 62.0203ZM136.113 65.761L133.476 65.1024L131.194 66.9728L132.42 71.8989H134.709L136.113 65.761ZM152.463 68.988L146.482 65.9717L145.249 63.9368L143.845 64.4439L145.072 67.8421L146.128 72.2611L148.764 73.2753L149.289 72.6167L147.708 70.0681L152.28 71.7672L152.463 68.988ZM101.156 130.301L100.475 130.96L105.748 132.488L107.853 134.865L111.198 135.208L112.424 133.337L108.384 132.679L101.156 130.301ZM116.826 133.528L113.133 134.549L113.664 135.906H118.229L119.108 134.549L117.527 134.72L116.826 133.528Z" stroke="#263238" stroke-miterlimit="10"/>
<path d="M157.388 152.578C186.3 124.629 186.3 79.3156 157.388 51.3669C128.475 23.4181 81.599 23.4182 52.6866 51.3669C23.7741 79.3156 23.7741 124.629 52.6866 152.578C81.599 180.527 128.475 180.527 157.388 152.578Z" stroke="#263238" stroke-miterlimit="10"/>
<path d="M170.176 67.7104C180.641 75.9097 186.847 86.1505 186.847 97.2013C186.847 124.203 149.942 146.107 104.412 146.107C58.8817 146.107 21.9766 124.209 21.9766 97.2013C21.9766 85.3865 29.0415 74.553 40.8004 66.0969" stroke="#BFE0E3" stroke-width="0.5" stroke-miterlimit="10"/>
<path d="M57.1777 47.3671C64.5969 35.6115 75.0273 27.7745 87.3858 26.0293C116.422 21.9856 145.111 53.3403 151.474 96.062C157.837 138.784 139.463 176.691 110.434 180.735C97.2167 182.572 84.068 177.08 73.0653 166.516" stroke="#BFE0E3" stroke-width="0.5" stroke-miterlimit="10"/>
<path d="M168.667 151.015C178.316 135.747 154.467 104.669 115.4 81.5987C76.3332 58.5288 36.8414 52.2041 27.1929 67.4721C17.5443 82.7401 41.3928 113.819 80.4598 136.889C119.527 159.959 159.019 166.283 168.667 151.015Z" stroke="#BFE0E3" stroke-width="0.5" stroke-miterlimit="10"/>
<path d="M121.468 133.301C161.559 109.626 186.238 78.0569 176.589 62.7889C166.941 47.521 126.619 54.336 86.5274 78.0107C46.436 101.685 21.7572 133.255 31.4058 148.523C41.0543 163.791 81.3765 156.976 121.468 133.301Z" stroke="#BFE0E3" stroke-width="0.5" stroke-miterlimit="10"/>
<path d="M138.981 56.7517C138.981 56.4912 138.901 56.2366 138.751 56.02C138.602 55.8033 138.389 55.6345 138.14 55.5348C137.891 55.4351 137.617 55.4091 137.353 55.4599C137.088 55.5107 136.846 55.6361 136.655 55.8204C136.464 56.0046 136.335 56.2393 136.282 56.4948C136.229 56.7503 136.256 57.0151 136.36 57.2558C136.463 57.4964 136.637 57.7021 136.861 57.8469C137.086 57.9916 137.349 58.0689 137.618 58.0689C137.98 58.0689 138.326 57.9301 138.582 57.6831C138.837 57.4361 138.981 57.101 138.981 56.7517Z" fill="#BFE0E3" stroke="#BFE0E3" stroke-width="0.5" stroke-miterlimit="10"/>
<path d="M153.967 110.669C153.967 110.409 153.887 110.154 153.738 109.937C153.588 109.721 153.375 109.552 153.126 109.452C152.877 109.353 152.603 109.326 152.339 109.377C152.075 109.428 151.832 109.553 151.641 109.738C151.451 109.922 151.321 110.157 151.268 110.412C151.216 110.668 151.243 110.932 151.346 111.173C151.449 111.414 151.624 111.62 151.848 111.764C152.072 111.909 152.335 111.986 152.605 111.986C152.966 111.986 153.313 111.847 153.568 111.6C153.824 111.353 153.967 111.018 153.967 110.669Z" fill="#BFE0E3" stroke="#BFE0E3" stroke-width="0.5" stroke-miterlimit="10"/>
<path d="M150.969 138.059C150.969 137.799 150.889 137.544 150.74 137.327C150.59 137.111 150.377 136.942 150.128 136.842C149.879 136.743 149.605 136.717 149.341 136.767C149.077 136.818 148.834 136.944 148.643 137.128C148.453 137.312 148.323 137.547 148.27 137.802C148.218 138.058 148.245 138.323 148.348 138.563C148.451 138.804 148.626 139.01 148.85 139.154C149.074 139.299 149.337 139.376 149.607 139.376C149.968 139.376 150.315 139.238 150.57 138.991C150.826 138.744 150.969 138.409 150.969 138.059Z" fill="#BFE0E3" stroke="#BFE0E3" stroke-width="0.5" stroke-miterlimit="10"/>
<path d="M142.276 158.923C142.276 158.662 142.196 158.408 142.046 158.191C141.897 157.974 141.684 157.806 141.435 157.706C141.186 157.606 140.912 157.58 140.648 157.631C140.383 157.682 140.14 157.807 139.95 157.991C139.759 158.176 139.63 158.41 139.577 158.666C139.524 158.921 139.551 159.186 139.655 159.427C139.758 159.668 139.932 159.873 140.156 160.018C140.38 160.163 140.644 160.24 140.913 160.24C141.275 160.24 141.621 160.101 141.877 159.854C142.132 159.607 142.276 159.272 142.276 158.923Z" fill="#BFE0E3" stroke="#BFE0E3" stroke-width="0.5" stroke-miterlimit="10"/>
<path d="M168.225 129.195C168.225 128.934 168.145 128.68 167.995 128.463C167.846 128.246 167.633 128.078 167.384 127.978C167.135 127.878 166.861 127.852 166.597 127.903C166.332 127.954 166.09 128.079 165.899 128.263C165.709 128.448 165.579 128.682 165.526 128.938C165.474 129.193 165.501 129.458 165.604 129.699C165.707 129.94 165.881 130.145 166.106 130.29C166.33 130.435 166.593 130.512 166.863 130.512C167.224 130.512 167.571 130.373 167.826 130.126C168.082 129.879 168.225 129.544 168.225 129.195Z" fill="#BFE0E3" stroke="#BFE0E3" stroke-width="0.5" stroke-miterlimit="10"/>
<path d="M98.2056 145.738C98.2056 145.478 98.1257 145.223 97.976 145.006C97.8263 144.79 97.6135 144.621 97.3645 144.521C97.1155 144.422 96.8415 144.396 96.5772 144.446C96.3129 144.497 96.0701 144.623 95.8796 144.807C95.689 144.991 95.5592 145.226 95.5067 145.481C95.4541 145.737 95.4811 146.002 95.5842 146.242C95.6873 146.483 95.862 146.689 96.086 146.833C96.3101 146.978 96.5736 147.055 96.8431 147.055C97.2044 147.055 97.551 146.917 97.8065 146.67C98.0621 146.423 98.2056 146.088 98.2056 145.738Z" fill="#BFE0E3" stroke="#BFE0E3" stroke-width="0.5" stroke-miterlimit="10"/>
<path d="M36.147 123.86C36.147 123.6 36.0671 123.345 35.9174 123.129C35.7676 122.912 35.5548 122.743 35.3059 122.643C35.0569 122.544 34.7829 122.518 34.5186 122.569C34.2543 122.619 34.0115 122.745 33.821 122.929C33.6304 123.113 33.5006 123.348 33.4481 123.603C33.3955 123.859 33.4225 124.124 33.5256 124.364C33.6287 124.605 33.8034 124.811 34.0274 124.956C34.2515 125.1 34.515 125.177 34.7844 125.177C35.1458 125.177 35.4924 125.039 35.7479 124.792C36.0034 124.545 36.147 124.21 36.147 123.86Z" fill="#BFE0E3" stroke="#BFE0E3" stroke-width="0.5" stroke-miterlimit="10"/>
<path d="M46.6392 110.234C46.6392 109.974 46.5593 109.719 46.4096 109.503C46.2599 109.286 46.0471 109.117 45.7981 109.018C45.5491 108.918 45.2751 108.892 45.0108 108.943C44.7465 108.993 44.5037 109.119 44.3131 109.303C44.1226 109.487 43.9928 109.722 43.9402 109.977C43.8877 110.233 43.9146 110.498 44.0178 110.738C44.1209 110.979 44.2956 111.185 44.5196 111.33C44.7437 111.474 45.0071 111.552 45.2766 111.552C45.638 111.552 45.9846 111.413 46.2401 111.166C46.4957 110.919 46.6392 110.584 46.6392 110.234Z" fill="#BFE0E3" stroke="#BFE0E3" stroke-width="0.5" stroke-miterlimit="10"/>
<path d="M98.354 72.1294C98.354 71.8689 98.2741 71.6142 98.1244 71.3976C97.9747 71.181 97.7619 71.0122 97.5129 70.9125C97.2639 70.8128 96.9899 70.7867 96.7256 70.8376C96.4613 70.8884 96.2185 71.0138 96.028 71.198C95.8374 71.3823 95.7077 71.6169 95.6551 71.8725C95.6025 72.128 95.6295 72.3928 95.7326 72.6335C95.8358 72.8741 96.0104 73.0799 96.2345 73.2246C96.4585 73.3693 96.722 73.4466 96.9915 73.4466C97.3528 73.4466 97.6994 73.3078 97.9549 73.0608C98.2105 72.8138 98.354 72.4787 98.354 72.1294Z" fill="#BFE0E3" stroke="#BFE0E3" stroke-width="0.5" stroke-miterlimit="10"/>
<path d="M179.297 75.4618C179.297 75.2013 179.218 74.9466 179.068 74.73C178.918 74.5134 178.705 74.3446 178.456 74.2449C178.207 74.1452 177.933 74.1191 177.669 74.17C177.405 74.2208 177.162 74.3462 176.971 74.5304C176.781 74.7146 176.651 74.9493 176.598 75.2048C176.546 75.4603 176.573 75.7252 176.676 75.9659C176.779 76.2065 176.954 76.4122 177.178 76.557C177.402 76.7017 177.665 76.779 177.935 76.779C178.296 76.779 178.643 76.6402 178.898 76.3932C179.154 76.1462 179.297 75.8111 179.297 75.4618Z" fill="#BFE0E3" stroke="#BFE0E3" stroke-width="0.5" stroke-miterlimit="10"/>
<path d="M27.604 81.8368C27.604 81.5763 27.5241 81.3216 27.3744 81.105C27.2247 80.8884 27.0119 80.7196 26.7629 80.6199C26.5139 80.5202 26.24 80.4941 25.9756 80.545C25.7113 80.5958 25.4685 80.7212 25.278 80.9054C25.0874 81.0896 24.9577 81.3243 24.9051 81.5798C24.8525 81.8353 24.8795 82.1002 24.9826 82.3409C25.0858 82.5815 25.2604 82.7872 25.4845 82.932C25.7085 83.0767 25.972 83.154 26.2415 83.154C26.6028 83.154 26.9494 83.0152 27.2049 82.7682C27.4605 82.5212 27.604 82.1861 27.604 81.8368Z" fill="#BFE0E3" stroke="#BFE0E3" stroke-width="0.5" stroke-miterlimit="10"/>
<path d="M179.285 74.9415L189.995 69.37" stroke="#BFE0E3" stroke-width="0.5" stroke-miterlimit="10"/>
<path d="M24.9052 81.8368L17.6699 80.5197" stroke="#BFE0E3" stroke-width="0.5" stroke-miterlimit="10"/>
<path d="M45.2891 108.931V96.5691" stroke="#BFE0E3" stroke-width="0.5" stroke-miterlimit="10"/>
<path d="M33.449 123.86L22.4395 125.632" stroke="#BFE0E3" stroke-width="0.5" stroke-miterlimit="10"/>
<path d="M96.5493 147.022L95.541 152.752" stroke="#BFE0E3" stroke-width="0.5" stroke-miterlimit="10"/>
<path d="M141.439 160.181L144.594 166.819" stroke="#BFE0E3" stroke-width="0.5" stroke-miterlimit="10"/>
<path d="M168.207 129.221L177.364 131.118" stroke="#BFE0E3" stroke-width="0.5" stroke-miterlimit="10"/>
<path d="M148.531 137.104L139.641 128.833" stroke="#BFE0E3" stroke-width="0.5" stroke-miterlimit="10"/>
<path d="M138.176 55.5795L142.229 43.9293" stroke="#BFE0E3" stroke-width="0.5" stroke-miterlimit="10"/>
<path d="M51.9863 49.4745L53.7032 50.7192" stroke="#BFE0E3" stroke-width="0.5" stroke-miterlimit="10"/>
<path d="M65.082 166.279L67.0101 163.79" stroke="#BFE0E3" stroke-width="0.5" stroke-miterlimit="10"/>
</svg>
