<svg width="15" height="16" viewBox="0 0 15 16" fill="none" xmlns="http://www.w3.org/2000/svg">
<g clip-path="url(#clip0)">
<path d="M10.625 2.85175C10.7892 2.6876 10.984 2.55739 11.1985 2.46855C11.413 2.37971 11.6429 2.33398 11.875 2.33398C12.1071 2.33398 12.337 2.37971 12.5515 2.46855C12.766 2.55739 12.9608 2.6876 13.125 2.85175C13.2892 3.0159 13.4194 3.21078 13.5082 3.42526C13.597 3.63973 13.6428 3.8696 13.6428 4.10175C13.6428 4.3339 13.597 4.56377 13.5082 4.77825C13.4194 4.99272 13.2892 5.1876 13.125 5.35175L4.6875 13.7893L1.25 14.7268L2.1875 11.2893L10.625 2.85175Z" stroke="#FFF5F6" stroke-width="2" stroke-linecap="round" stroke-linejoin="round"/>
</g>
<defs>
<clipPath id="clip0">
<rect width="15" height="15" fill="white" transform="translate(0 0.976807)"/>
</clipPath>
</defs>
</svg>
