<svg width="24" height="25" viewBox="0 0 24 25" fill="none" xmlns="http://www.w3.org/2000/svg">
<path d="M13 5.97656C13 5.42428 12.5523 4.97656 12 4.97656C11.4477 4.97656 11 5.42428 11 5.97656C11 6.52885 11.4477 6.97656 12 6.97656C12.5523 6.97656 13 6.52885 13 5.97656Z" stroke="#0377A6" stroke-width="2" stroke-linecap="round" stroke-linejoin="round"/>
<path d="M13 12.9766C13 12.4243 12.5523 11.9766 12 11.9766C11.4477 11.9766 11 12.4243 11 12.9766C11 13.5288 11.4477 13.9766 12 13.9766C12.5523 13.9766 13 13.5288 13 12.9766Z" stroke="#0377A6" stroke-width="2" stroke-linecap="round" stroke-linejoin="round"/>
<path d="M13 19.9766C13 19.4243 12.5523 18.9766 12 18.9766C11.4477 18.9766 11 19.4243 11 19.9766C11 20.5288 11.4477 20.9766 12 20.9766C12.5523 20.9766 13 20.5288 13 19.9766Z" stroke="#0377A6" stroke-width="2" stroke-linecap="round" stroke-linejoin="round"/>
</svg>
