<svg width="20" height="21" viewBox="0 0 20 21" fill="none" xmlns="http://www.w3.org/2000/svg">
<path d="M15.8333 11.8102C16.2936 11.8102 16.6667 11.4371 16.6667 10.9768C16.6667 10.5166 16.2936 10.1435 15.8333 10.1435C15.3731 10.1435 15 10.5166 15 10.9768C15 11.4371 15.3731 11.8102 15.8333 11.8102Z" stroke="#666666" stroke-width="2" stroke-linecap="round" stroke-linejoin="round"/>
<path d="M9.99935 11.8102C10.4596 11.8102 10.8327 11.4371 10.8327 10.9768C10.8327 10.5166 10.4596 10.1435 9.99935 10.1435C9.53911 10.1435 9.16602 10.5166 9.16602 10.9768C9.16602 11.4371 9.53911 11.8102 9.99935 11.8102Z" stroke="#666666" stroke-width="2" stroke-linecap="round" stroke-linejoin="round"/>
<path d="M4.16732 11.8102C4.62755 11.8102 5.00065 11.4371 5.00065 10.9768C5.00065 10.5166 4.62755 10.1435 4.16732 10.1435C3.70708 10.1435 3.33398 10.5166 3.33398 10.9768C3.33398 11.4371 3.70708 11.8102 4.16732 11.8102Z" stroke="#666666" stroke-width="2" stroke-linecap="round" stroke-linejoin="round"/>
</svg>
