<svg width="14" height="17" viewBox="0 0 14 17" fill="none" xmlns="http://www.w3.org/2000/svg">
<path d="M6.84049 7.3815C7.17013 7.3815 7.49236 7.28375 7.76644 7.10062C8.04053 6.91748 8.25415 6.65719 8.38029 6.35264C8.50644 6.0481 8.53944 5.71299 8.47514 5.38969C8.41083 5.06638 8.25209 4.76941 8.019 4.53632C7.78592 4.30324 7.48895 4.1445 7.16564 4.08019C6.84234 4.01588 6.50723 4.04889 6.20269 4.17504C5.89815 4.30118 5.63785 4.5148 5.45471 4.78889C5.27158 5.06297 5.17383 5.3852 5.17383 5.71484C5.17383 6.15686 5.34942 6.58079 5.66198 6.89335C5.97454 7.20591 6.39847 7.3815 6.84049 7.3815ZM6.24883 13.1398C6.3263 13.2179 6.41846 13.2799 6.52001 13.3222C6.62156 13.3646 6.73048 13.3863 6.84049 13.3863C6.9505 13.3863 7.05943 13.3646 7.16097 13.3222C7.26252 13.2799 7.35469 13.2179 7.43216 13.1398L10.8405 9.72317C11.6321 8.93195 12.1713 7.92374 12.3899 6.82605C12.6085 5.72836 12.4966 4.59051 12.0684 3.55641C11.6402 2.52231 10.915 1.63843 9.9844 1.01655C9.05383 0.394674 7.95973 0.0627441 6.84049 0.0627441C5.72126 0.0627441 4.62716 0.394674 3.69659 1.01655C2.76601 1.63843 2.04077 2.52231 1.61259 3.55641C1.18441 4.59051 1.07253 5.72836 1.2911 6.82605C1.50967 7.92374 2.04887 8.93195 2.84049 9.72317L6.24883 13.1398ZM2.86549 5.3315C2.92243 4.73735 3.11134 4.16341 3.41843 3.6516C3.72552 3.13978 4.14304 2.70301 4.64049 2.37317C5.294 1.94408 6.05871 1.71547 6.84049 1.71547C7.62227 1.71547 8.38699 1.94408 9.04049 2.37317C9.53463 2.70188 9.94978 3.136 10.2561 3.64432C10.5624 4.15264 10.7523 4.72253 10.812 5.31299C10.8718 5.90346 10.8 6.49983 10.6017 7.05922C10.4035 7.61861 10.0837 8.12711 9.66549 8.54817L6.84049 11.3732L4.01549 8.54817C3.59676 8.1312 3.27627 7.62611 3.07733 7.06967C2.8784 6.51323 2.80603 5.91944 2.86549 5.3315ZM12.6738 15.0482H1.00716C0.786148 15.0482 0.574186 15.136 0.417906 15.2922C0.261626 15.4485 0.173828 15.6605 0.173828 15.8815C0.173828 16.1025 0.261626 16.3145 0.417906 16.4708C0.574186 16.627 0.786148 16.7148 1.00716 16.7148H12.6738C12.8948 16.7148 13.1068 16.627 13.2631 16.4708C13.4194 16.3145 13.5072 16.1025 13.5072 15.8815C13.5072 15.6605 13.4194 15.4485 13.2631 15.2922C13.1068 15.136 12.8948 15.0482 12.6738 15.0482Z" fill="#333333"/>
</svg>
