<svg width="75" height="76" viewBox="0 0 75 76" fill="none" xmlns="http://www.w3.org/2000/svg">
<path fill-rule="evenodd" clip-rule="evenodd" d="M36.325 22.3225C31.9184 23.358 30.8828 28.0721 31.911 29.1299C32.5379 29.7748 33.5127 29.6009 33.9502 28.9589C34.3078 28.4342 34.1285 27.4346 34.6006 26.5769C35.8068 24.3858 38.9194 24.2062 40.3608 26.2791C41.0645 27.2911 40.7322 27.6216 41.0372 28.6419C41.4624 30.0635 44.1992 30.0276 43.4705 26.979C43.0808 25.3484 42.3208 24.3025 41.1318 23.3574C40.0323 22.4834 38.0696 21.9125 36.325 22.3225V22.3225Z" fill="#002C3E"/>
<path fill-rule="evenodd" clip-rule="evenodd" d="M55.2062 16.4421C57.5977 16.4421 59.5364 18.4124 59.5364 20.8428C59.5364 23.2733 57.5977 25.2435 55.2062 25.2435C52.8147 25.2435 50.8761 23.2733 50.8761 20.8428C50.8761 18.4124 52.8147 16.4421 55.2062 16.4421ZM21.8329 40.7467C22.3429 42.7314 22.5926 45.611 22.4535 47.7141C22.4214 48.1992 21.968 51.4812 21.918 51.6288C21.8632 52.1125 21.6632 52.8735 21.4739 53.5145H21.7984C22.0729 53.5145 22.3262 53.5401 22.5581 53.5921C24.1406 50.8479 25.9548 47.1403 26.2843 45.8631C26.4116 45.3702 26.498 44.8218 26.5831 44.3095C26.7638 43.2218 26.8159 42.2216 26.9074 41.0636C27.0858 38.8031 26.773 36.3372 26.6337 34.139C26.8527 34.227 27.4667 34.7969 27.6788 34.9652C28.7899 35.8472 29.7871 36.5375 31.0639 37.1934C31.2776 37.3031 31.4246 37.3742 31.6685 37.4867C32.0039 37.6413 32.0709 37.5795 32.4275 37.4758C32.9135 37.3345 33.42 37.2085 33.8916 37.0594C34.9017 36.7399 35.6367 36.3858 36.5433 35.9942C36.5079 35.8604 36.6206 35.959 36.2242 35.7055C35.4218 35.1924 34.4564 34.4897 33.7442 33.8242L32.4796 32.5932C32.1253 32.2583 31.6539 31.6829 31.2913 31.2422C30.5336 30.3212 29.7989 29.3829 29.1248 28.421C28.777 27.9247 28.4188 27.4157 28.1137 26.9509C27.9243 26.6624 27.1942 25.6358 27.1063 25.4133C26.7594 25.4722 22.7042 27.0898 22.2593 27.261C21.8987 27.4 17.6519 29.0018 17.4396 29.1516C17.6101 29.3527 18.9682 32.5223 19.2245 33.0682C19.5295 33.7178 19.8061 34.4301 20.063 35.1147C21.0026 37.6196 21.1337 38.0788 21.8329 40.7467L21.8329 40.7467ZM19.0438 16.3919C17.7437 16.7088 17.0506 17.1674 16.3545 18.066C15.7501 18.8463 15.2785 20.1531 15.5374 21.5083C15.9529 23.6841 18.008 25.5224 20.6366 25.0562C21.4412 24.9136 22.2609 24.5304 22.8113 23.9772C23.0029 23.7849 23.1713 23.6119 23.3478 23.4081C24.3992 22.1936 24.5974 19.9637 23.5857 18.3684C23.1231 17.6388 22.5474 17.1603 21.8285 16.7777C21.0635 16.3708 19.8861 16.1866 19.0438 16.3919ZM43.0947 31.5518C41.9142 32.8902 41.042 33.8007 39.5917 34.9034C39.3008 35.1245 37.7941 36.2009 37.488 36.2324L37.3443 36.3473C37.3128 36.3674 37.2237 36.4133 37.1875 36.4324L36.4859 36.7832C36.4254 36.8122 36.3761 36.8366 36.3251 36.863C36.3151 36.868 36.3037 36.875 36.2935 36.8802L36.2274 36.9139C36.124 36.962 36.3063 36.9022 36.1137 36.9601L33.751 37.8372C33.6777 37.8616 33.6601 37.8659 33.5783 37.8939L33.4025 37.9658C34.2139 38.2865 36.7686 38.5283 37.7098 38.5298C39.306 38.5321 40.6385 38.3267 41.9633 37.866C43.8499 37.2098 45.841 35.93 47.3575 34.6303C47.4948 34.5126 47.8788 34.1468 48.0248 34.0969C47.863 35.7203 47.7458 37.2791 47.7032 38.9724C47.6808 39.8615 47.7271 40.7006 47.7574 41.5663C47.8313 43.6733 48.3659 46.3204 49.0115 48.1809C49.3229 49.0786 49.7656 50.1077 50.1875 50.9461C50.4916 51.5504 51.2865 52.8519 51.6823 53.4397C51.6925 53.4603 51.7064 53.4854 51.7236 53.5145H52.7024L53.9733 56.0206H53.9801L53.525 54.7117C52.6375 51.7637 52.0809 47.5738 52.2127 44.6415C52.2619 43.5465 52.4663 42.4724 52.6452 41.4702C52.8699 40.2114 53.121 39.6382 53.3705 38.5687C53.4032 38.3975 53.3903 38.4922 53.4471 38.3372C53.5114 38.162 53.7983 37.3355 53.812 37.3159C53.8188 37.1108 53.9877 36.6799 54.0741 36.462C54.1489 36.1659 54.3024 35.8104 54.4204 35.5083C54.5407 35.2004 54.6679 34.8927 54.7856 34.5859C55.0281 33.9545 55.2768 33.3719 55.5493 32.7561L56.7545 30.0866C56.8831 29.8243 57.1174 29.4041 57.1873 29.0886C56.8824 29.0122 56.5805 28.8711 56.2679 28.7543C55.0437 28.2828 47.638 25.433 47.5158 25.436C47.3785 25.7267 47.0606 26.133 46.8776 26.4137C44.946 29.2435 45.1868 29.1798 43.0947 31.5518L43.0947 31.5518Z" fill="#F7444E"/>
<path d="M17.0301 62.2546V53.1348H20.2246C21.3311 53.1348 22.1705 53.3478 22.7425 53.7737C23.3146 54.1955 23.6007 54.8156 23.6007 55.634C23.6007 56.0808 23.4858 56.4754 23.2562 56.8178C23.0265 57.1561 22.707 57.4045 22.2978 57.5632C22.7655 57.6801 23.133 57.9161 23.4002 58.271C23.6716 58.6259 23.8074 59.0602 23.8074 59.5738C23.8074 60.4507 23.5276 61.1147 22.968 61.5656C22.4085 62.0166 21.6109 62.2463 20.5753 62.2546H17.0301ZM18.9092 58.2835V60.7451H20.519C20.9616 60.7451 21.3061 60.6407 21.5525 60.4319C21.803 60.219 21.9283 59.9267 21.9283 59.555C21.9283 58.7199 21.4961 58.296 20.6317 58.2835H18.9092ZM18.9092 56.9556H20.2997C21.2476 56.9389 21.7216 56.561 21.7216 55.8219C21.7216 55.4085 21.6005 55.112 21.3583 54.9325C21.1203 54.7488 20.7424 54.6569 20.2246 54.6569H18.9092V56.9556ZM32.1254 53.1348V59.1416C32.1254 60.1396 31.8122 60.9288 31.1859 61.5093C30.5637 62.0897 29.7118 62.3799 28.6303 62.3799C27.5655 62.3799 26.7199 62.098 26.0936 61.5343C25.4672 60.9706 25.1478 60.196 25.1352 59.2105V53.1348H27.0143V59.1542C27.0143 59.7513 27.1563 60.1877 27.4402 60.4632C27.7284 60.7347 28.1251 60.8704 28.6303 60.8704C29.6868 60.8704 30.2234 60.315 30.2401 59.2043V53.1348H32.1254ZM33.6663 62.2546V53.1348H36.4723C37.2741 53.1348 37.9902 53.3165 38.6208 53.6798C39.2555 54.0389 39.7503 54.5525 40.1052 55.2206C40.4602 55.8846 40.6376 56.6404 40.6376 57.488V57.9077C40.6376 58.7554 40.4623 59.5091 40.1115 60.1689C39.7649 60.8286 39.2743 61.3402 38.6396 61.7034C38.0048 62.0667 37.2887 62.2505 36.4911 62.2546H33.6663ZM35.5453 54.6569V60.7451H36.4536C37.1885 60.7451 37.7501 60.505 38.1385 60.0248C38.5268 59.5446 38.7252 58.8577 38.7335 57.9641V57.4818C38.7335 56.5548 38.5414 55.8532 38.1573 55.3772C37.7731 54.897 37.2115 54.6569 36.4723 54.6569H35.5453ZM42.0094 62.2546V53.1348H44.8155C45.6172 53.1348 46.3333 53.3165 46.9639 53.6798C47.5986 54.0389 48.0934 54.5525 48.4483 55.2206C48.8033 55.8846 48.9808 56.6404 48.9808 57.488V57.9077C48.9808 58.7554 48.8054 59.5091 48.4546 60.1689C48.108 60.8286 47.6174 61.3402 46.9827 61.7034C46.348 62.0667 45.6318 62.2505 44.8342 62.2546H42.0094ZM43.8884 54.6569V60.7451H44.7967C45.5316 60.7451 46.0932 60.505 46.4816 60.0248C46.8699 59.5446 47.0683 58.8577 47.0766 57.9641V57.4818C47.0766 56.5548 46.8845 55.8532 46.5004 55.3772C46.1162 54.897 45.5546 54.6569 44.8155 54.6569H43.8884ZM53.2212 57.2438L55.1191 53.1348H57.1735L54.1795 58.9475V62.2546H52.2691V58.9475L49.2751 53.1348H51.3359L53.2212 57.2438Z" fill="#78BCC4"/>
<path d="M22.967 46.9917L24.4508 51.1812L25.9266 46.9917H27.4897V52.7681H26.2955V51.1891L26.4146 48.4636L24.8554 52.7681H24.0382L22.483 48.4675L22.602 51.1891V52.7681H21.4118V46.9917H22.967ZM31.8616 51.5779H29.7749L29.3781 52.7681H28.1126L30.2628 46.9917H31.3657L33.5279 52.7681H32.2623L31.8616 51.5779ZM30.0962 50.6138H31.5403L30.8143 48.4517L30.0962 50.6138ZM36.2058 50.6535H35.2576V52.7681H34.0674V46.9917H36.2137C36.8961 46.9917 37.4224 47.1438 37.7927 47.4479C38.163 47.7521 38.3481 48.1819 38.3481 48.7373C38.3481 49.1314 38.2622 49.4607 38.0903 49.7252C37.921 49.987 37.6631 50.1959 37.3167 50.352L38.5663 52.7125V52.7681H37.2889L36.2058 50.6535ZM35.2576 49.6895H36.2177C36.5166 49.6895 36.748 49.6141 36.912 49.4633C37.076 49.3099 37.158 49.0997 37.158 48.8325C37.158 48.5601 37.0799 48.3459 36.9239 48.1898C36.7705 48.0338 36.5338 47.9558 36.2137 47.9558H35.2576V49.6895ZM41.0657 50.4512L40.4468 51.1177V52.7681H39.2567V46.9917H40.4468V49.6101L40.9705 48.892L42.4424 46.9917H43.9063L41.8552 49.5585L43.9658 52.7681H42.5495L41.0657 50.4512ZM47.8894 50.2647H45.6043V51.812H48.2862V52.7681H44.4141V46.9917H48.2782V47.9558H45.6043V49.3324H47.8894V50.2647ZM53.4119 47.9558H51.6425V52.7681H50.4523V47.9558H48.7067V46.9917H53.4119V47.9558Z" fill="#78BCC4"/>
</svg>
