<svg width="82" height="104" viewBox="0 0 82 104" fill="none" xmlns="http://www.w3.org/2000/svg">
<circle cx="41.1589" cy="40.4722" r="40.3132" fill="#F1F1F1"/>
<rect x="25.3453" y="39.6506" width="39.4675" height="55.2545" rx="3.94675" transform="rotate(2.5 25.3453 39.6506)" fill="#EEEEEE" stroke="#999999" stroke-width="1.12764"/>
<rect x="1.88108" y="36.3455" width="41.7228" height="57.5098" rx="5.07439" transform="rotate(-7.5 1.88108 36.3455)" fill="#FAFAFA" stroke="#999999" stroke-width="1.12764"/>
<path d="M3.10242 41.3028C2.77726 38.833 4.51585 36.5672 6.98566 36.2421L38.2895 32.1208C40.7594 31.7957 43.0251 33.5343 43.3503 36.0041L44.4542 44.389L4.20632 49.6878L3.10242 41.3028Z" fill="#EEEEEE"/>
<rect x="51.5156" y="33.2232" width="1.69146" height="5.63822" rx="0.845732" transform="rotate(82.5 51.5156 33.2232)" fill="#999999"/>
<rect x="36.0684" y="23.8831" width="1.69146" height="5.63822" rx="0.845732" transform="rotate(-7.5 36.0684 23.8831)" fill="#999999"/>
<rect x="45.9785" y="25.4218" width="1.69146" height="5.63822" rx="0.845732" transform="rotate(37.5 45.9785 25.4218)" fill="#999999"/>
<rect x="8.41406" y="51.4086" width="32.7017" height="2.25529" rx="1.12764" transform="rotate(-7.5 8.41406 51.4086)" fill="#DCDCDC"/>
<rect x="9.88672" y="62.5886" width="32.7017" height="2.25529" rx="1.12764" transform="rotate(-7.5 9.88672 62.5886)" fill="#DCDCDC"/>
<rect x="11.3574" y="73.7685" width="32.7017" height="2.25529" rx="1.12764" transform="rotate(-7.5 11.3574 73.7685)" fill="#DCDCDC"/>
<rect x="9.00391" y="55.8806" width="11.8403" height="2.25529" rx="1.12764" transform="rotate(-7.5 9.00391 55.8806)" fill="#EEEEEE"/>
<rect x="10.4746" y="67.0605" width="11.8403" height="2.25529" rx="1.12764" transform="rotate(-7.5 10.4746 67.0605)" fill="#EEEEEE"/>
<rect x="11.9473" y="78.2405" width="11.8403" height="2.25529" rx="1.12764" transform="rotate(-7.5 11.9473 78.2405)" fill="#EEEEEE"/>
</svg>
