<svg width="35" height="36" viewBox="0 0 35 36" fill="none" xmlns="http://www.w3.org/2000/svg">
<circle cx="17.5" cy="18.4768" r="17.5" fill="#F8444F"/>
<g clip-path="url(#clip0)">
<path d="M20.625 12.8518C20.7892 12.6876 20.984 12.5574 21.1985 12.4685C21.413 12.3797 21.6429 12.334 21.875 12.334C22.1071 12.334 22.337 12.3797 22.5515 12.4685C22.766 12.5574 22.9608 12.6876 23.125 12.8518C23.2892 13.0159 23.4194 13.2108 23.5082 13.4253C23.597 13.6397 23.6428 13.8696 23.6428 14.1018C23.6428 14.3339 23.597 14.5638 23.5082 14.7782C23.4194 14.9927 23.2892 15.1876 23.125 15.3518L14.6875 23.7893L11.25 24.7268L12.1875 21.2893L20.625 12.8518Z" stroke="#FFF5F6" stroke-width="2" stroke-linecap="round" stroke-linejoin="round"/>
</g>
<defs>
<clipPath id="clip0">
<rect width="15" height="15" fill="white" transform="translate(10 10.9768)"/>
</clipPath>
</defs>
</svg>
